# xmcd
#
# Track frame offsets:
#	150
#	21286
#	43407
#	67577
#	100050
#	126724
#	143457
#	165484
#
# Disc length: 2368 seconds
#
# Revision: 1
# Processed by: cddbd v1.5.1PL2 Copyright (c) Steve Scherf et al.
# Submitted via: audiograbber 1.81.03
#
DISCID=67093e08
DTITLE=Nosso Trio - Ao Vivo
DYEAR=1900
DGENRE=
TTITLE0=O Barquinho
TTITLE1=Brooklyn High (Partindo Pro Alto)
TTITLE2=Baião Por Acaso
TTITLE3=Balada p ´a Nadia
TTITLE4=Vento Bravo
TTITLE5=Resposta
TTITLE6=Fala Negão
TTITLE7=Lagoa Santa
EXTD=
EXTT0=
EXTT1=
EXTT2=
EXTT3=
EXTT4=
EXTT5=
EXTT6=
EXTT7=
PLAYORDER=
